:SAMPLES-PER-SECOND 30
:FULLY-SPECIFIED
:DEGREES
289
root  -1.58112 39.2737 19.1651 -176.258 33.4322 175.31
RightUpLeg  -7.87076 3.09422 -7.37095
RightLeg  26.5825 -5.08718 -2.98233
RightFoot  -12.3996 0.0706087 16.8524
RightToes  2.32829e-010 0 -3.6325e-017
Spine  7.34008 0.208393 -1.80891
Spine1  20.4913 0.430467 -0.477111
HEad  -16.3454 27.5299 -13.7248
LeftShoulder1  0.550134 1.28699 -18.2256
LeftArm  20.9481 15.79 -56.0912
LeftForeArm  96.552 -79.9234 -95.3787
LeftHand  -2.61381 -5.34425 28.0464
RightShoulder  0.429716 -1.08851 10.6749
RightArm  12.8791 -24.222 61.0146
RightForeArm  133.587 65.8144 154.158
RightHand  -0.624096 2.08588 -9.86727
LeftUpLeg  -20.7576 -4.63334 9.57287
LeftLeg  25.0324 4.13496 2.42304
LeftFoot  3.29568 1.84002 -14.4501
LeftToes  -5.54824e-011 -8.71001e-011 8.3852e-012
290
root  -2.07662 39.3548 18.5316 -176.243 34.8468 174.926
RightUpLeg  -9.52943 0.0359138 -9.73017
RightLeg  28.5652 -1.73373 -1.24513
RightFoot  -9.70587 -0.340764 18.9939
RightToes  2.32829e-010 0 -3.6325e-017
Spine  7.57067 0.357283 -2.57163
Spine1  20.0226 0.568767 -0.780234
HEad  -16.2245 27.9991 -13.848
LeftShoulder1  0.63683 0.817885 -16.9891
LeftArm  20.5549 16.519 -56.2625
LeftForeArm  99.5145 -79.7623 -99.6656
LeftHand  -2.50253 -5.12639 27.4402
RightShoulder  0.428946 -0.989674 9.72887
RightArm  13.195 -23.666 60.1556
RightForeArm  134.354 65.7177 154.347
RightHand  -0.541561 1.79514 -8.91833
LeftUpLeg  -19.3143 -3.18659 8.1471
LeftLeg  22.8711 3.24446 1.82873
LeftFoot  2.18537 2.00503 -16.9507
LeftToes  -5.54824e-011 -8.71001e-011 8.3852e-012
291
root  -2.55899 39.1071 17.9363 -177.344 36.7939 174.439
RightUpLeg  -11.3762 -1.68912 -11.863
RightLeg  33.1457 -0.217721 -0.413958
RightFoot  -8.2826 -0.630292 21.357
RightToes  2.32829e-010 0 -3.6325e-017
Spine  8.43368 0.577864 -3.47097
Spine1  19.8179 0.972862 -1.75808
HEad  -16.0687 28.7013 -13.8547
LeftShoulder1  0.60614 0.856487 -16.1152
LeftArm  20.8612 15.6796 -56.1074
LeftForeArm  96.3993 -79.6624 -99.0631
LeftHand  -2.42632 -4.82038 27.3996
RightShoulder  0.430039 -0.942519 9.03608
RightArm  13.5898 -22.3632 59.2939
RightForeArm  134.169 65.8397 154.19
RightHand  -0.499551 1.67421 -8.37122
LeftUpLeg  -17.4898 0.335571 6.39402
LeftLeg  23.5613 2.16935 1.36402
LeftFoot  -1.99268 1.43861 -17.2395
LeftToes  -5.54824e-011 -8.71001e-011 8.3852e-012
292
root  -3.01178 38.6098 17.4295 -179.338 38.612 173.753
RightUpLeg  -13.2547 -2.60928 -13.7436
RightLeg  39.3443 -1.06431 -1.23893
RightFoot  -8.29868 -0.649189 22.0373
RightToes  2.32829e-010 0 -3.6325e-017
Spine  9.48422 0.790623 -4.8342
Spine1  20.4055 1.18533 -2.59817
HEad  -16.8932 29.5218 -14.4372
LeftShoulder1  0.542041 1.13704 -16.1244
LeftArm  21.1311 12.8354 -55.1254
LeftForeArm  86.885 -79.7232 -90.6604
LeftHand  -2.39187 -4.63206 27.5105
RightShoulder  0.430837 -0.867291 8.80972
RightArm  13.4427 -20.3779 59.0109
RightForeArm  131.055 66.5886 152.961
RightHand  -0.497966 1.42423 -8.63146
LeftUpLeg  -16.1536 3.99737 4.68559
LeftLeg  26.4434 1.11187 0.953829
LeftFoot  -7.66072 0.552893 -15.5543
LeftToes  -5.54824e-011 -8.71001e-011 8.3852e-012
293
root  -3.41136 38.1353 16.9863 178.474 39.4592 172.872
RightUpLeg  -14.6231 -3.60521 -15.3582
RightLeg  44.4832 -3.25307 -3.72201
RightFoot  -9.18622 -0.459199 20.7967
RightToes  2.32829e-010 0 -3.6325e-017
Spine  10.1547 0.851589 -6.50817
Spine1  21.8919 0.821645 -2.21984
HEad  -18.4997 30.0922 -15.4052
LeftShoulder1  0.579436 1.00066 -16.3913
LeftArm  20.2462 8.72639 -54.1685
LeftForeArm  70.2773 -79.3056 -73.6069
LeftHand  -2.3485 -4.2643 28.0175
RightShoulder  0.430276 -0.875671 9.07206
RightArm  12.3944 -18.3194 59.912
RightForeArm  126.468 68.1349 150.391
RightHand  -0.572143 1.46028 -9.82586
LeftUpLeg  -15.3007 4.73081 3.02519
LeftLeg  29.3769 1.49775 1.28058
LeftFoot  -12.0768 -0.0196228 -13.5845
LeftToes  -5.54824e-011 -8.71001e-011 8.3852e-012
